<?xml version="1.0" encoding="utf-8"?>
<!-- Generator: Adobe Illustrator 19.1.0, SVG Export Plug-In . SVG Version: 6.00 Build 0)  -->
<svg version="1.1" id="Final" xmlns="http://www.w3.org/2000/svg" xmlns:xlink="http://www.w3.org/1999/xlink" x="0px" y="0px"
	 viewBox="0 0 1280 800" style="enable-background:new 0 0 1280 800;" xml:space="preserve">
<style type="text/css">
	.st0{fill:#EF672F;}
	.st1{fill:#195398;}
	.st2{fill-rule:evenodd;clip-rule:evenodd;fill:#EF672F;}
</style>
<g>
	<g>
		<path class="st0" d="M396.5,454.2L370,378h-0.5c0.7,11.3,1.1,21.9,1.1,31.8v44.4H357v-91.3h21l25.3,72.6h0.4l26.1-72.6H451v91.3
			h-14.4V409c0-4.5,0.1-10.4,0.3-17.7c0.2-7.3,0.4-11.7,0.6-13.2H437l-27.4,76.1H396.5z"/>
		<path class="st0" d="M510.2,454.2l-2.9-9.6h-0.5c-3.3,4.2-6.7,7.1-10,8.6c-3.4,1.5-7.7,2.3-13,2.3c-6.8,0-12.1-1.8-15.9-5.5
			c-3.8-3.7-5.7-8.8-5.7-15.5c0-7.1,2.6-12.5,7.9-16.1c5.3-3.6,13.3-5.6,24.2-5.9l11.9-0.4v-3.7c0-4.4-1-7.7-3.1-9.9
			c-2.1-2.2-5.3-3.3-9.6-3.3c-3.5,0-6.9,0.5-10.2,1.6c-3.2,1-6.4,2.3-9.4,3.7l-4.7-10.5c3.7-2,7.8-3.4,12.3-4.5
			c4.5-1,8.7-1.5,12.6-1.5c8.8,0,15.4,1.9,19.9,5.7c4.5,3.8,6.7,9.8,6.7,18v46.5H510.2z M488.4,444.2c5.3,0,9.6-1.5,12.8-4.5
			c3.2-3,4.8-7.1,4.8-12.5v-6l-8.9,0.4c-6.9,0.2-11.9,1.4-15.1,3.5s-4.7,5.2-4.7,9.5c0,3.1,0.9,5.5,2.7,7.1
			C482,443.3,484.7,444.2,488.4,444.2z"/>
		<path class="st0" d="M593.1,385.1v8.1l-11.8,2.2c1.1,1.5,2,3.2,2.7,5.4c0.7,2.1,1.1,4.4,1.1,6.7c0,7.1-2.5,12.7-7.4,16.8
			c-4.9,4.1-11.7,6.1-20.3,6.1c-2.2,0-4.2-0.2-6-0.5c-3.2,2-4.7,4.2-4.7,6.9c0,1.6,0.7,2.8,2.2,3.6c1.5,0.8,4.2,1.2,8.1,1.2h12
			c7.6,0,13.4,1.6,17.4,4.9s5.9,7.9,5.9,14c0,7.8-3.2,13.9-9.7,18.1c-6.5,4.2-15.8,6.4-28,6.4c-9.4,0-16.6-1.7-21.5-5
			c-5-3.3-7.4-8.1-7.4-14.2c0-4.2,1.3-7.8,4-10.7c2.7-2.9,6.4-4.9,11.3-6c-2-0.8-3.6-2.2-4.8-4c-1.3-1.9-1.9-3.8-1.9-5.8
			c0-2.6,0.7-4.8,2.2-6.6c1.5-1.8,3.6-3.6,6.5-5.3c-3.6-1.5-6.5-4-8.7-7.5c-2.2-3.5-3.3-7.5-3.3-12.2c0-7.5,2.4-13.3,7.1-17.4
			c4.7-4.1,11.5-6.2,20.2-6.2c2,0,4,0.1,6.2,0.4c2.1,0.3,3.8,0.6,4.8,0.8H593.1z M538.9,464.9c0,3.2,1.4,5.6,4.3,7.3
			c2.8,1.7,6.9,2.6,12,2.6c8,0,13.9-1.1,17.9-3.4c3.9-2.3,5.9-5.3,5.9-9.1c0-3-1.1-5.1-3.2-6.4c-2.1-1.3-6.1-1.9-12-1.9h-11.1
			c-4.2,0-7.5,1-10,3C540.1,458.9,538.9,461.5,538.9,464.9z M545.2,407.5c0,4.3,1.1,7.7,3.3,10c2.2,2.3,5.4,3.5,9.6,3.5
			c8.5,0,12.7-4.5,12.7-13.6c0-4.5-1.1-8-3.2-10.4c-2.1-2.4-5.3-3.7-9.6-3.7c-4.2,0-7.5,1.2-9.6,3.6
			C546.2,399.3,545.2,402.9,545.2,407.5z"/>
		<path class="st0" d="M629.7,455.4c-10.7,0-19.1-3.1-25.2-9.4c-6.1-6.3-9.1-14.9-9.1-25.9c0-11.3,2.8-20.1,8.4-26.6
			c5.6-6.5,13.3-9.7,23.2-9.7c9.1,0,16.3,2.8,21.6,8.3c5.3,5.5,7.9,13.2,7.9,22.8v7.9h-46c0.2,6.7,2,11.9,5.4,15.4
			c3.4,3.6,8.2,5.4,14.4,5.4c4.1,0,7.9-0.4,11.4-1.2c3.5-0.8,7.3-2,11.3-3.8v11.9c-3.6,1.7-7.2,2.9-10.9,3.6
			C638.5,455.1,634.4,455.4,629.7,455.4z M627,395c-4.7,0-8.4,1.5-11.2,4.4c-2.8,3-4.5,7.3-5,12.9h31.3c-0.1-5.7-1.5-10-4.1-13
			C635.3,396.5,631.6,395,627,395z"/>
		<path class="st1" d="M720.3,429.9c0,8-2.9,14.3-8.7,18.8c-5.8,4.5-13.7,6.7-23.7,6.7c-10.8,0-19.1-1.4-25-4.2V441
			c3.7,1.6,7.8,2.8,12.2,3.7c4.4,0.9,8.8,1.4,13.1,1.4c7.1,0,12.4-1.3,16-4c3.6-2.7,5.4-6.4,5.4-11.2c0-3.2-0.6-5.8-1.9-7.8
			c-1.3-2-3.4-3.9-6.4-5.6c-3-1.7-7.5-3.6-13.6-5.8c-8.5-3-14.6-6.6-18.2-10.8c-3.6-4.2-5.5-9.6-5.5-16.3c0-7,2.6-12.6,7.9-16.8
			c5.3-4.2,12.3-6.2,21-6.2c9.1,0,17.4,1.7,25,5l-3.3,9.2c-7.5-3.2-14.9-4.7-22-4.7c-5.6,0-10,1.2-13.2,3.6c-3.2,2.4-4.7,5.8-4.7,10
			c0,3.2,0.6,5.8,1.7,7.8c1.2,2,3.1,3.9,5.9,5.6c2.8,1.7,7,3.5,12.7,5.6c9.6,3.4,16.2,7.1,19.8,11
			C718.5,418.6,720.3,423.7,720.3,429.9z"/>
		<path class="st1" d="M753.1,446.9c1.8,0,3.6-0.1,5.3-0.4c1.7-0.3,3.1-0.6,4.1-0.8v7.9c-1.1,0.5-2.8,1-5,1.3
			c-2.2,0.4-4.2,0.5-5.9,0.5c-13.2,0-19.8-7-19.8-20.9v-40.7H722v-5l9.8-4.3l4.4-14.6h6v15.9H762v8.1h-19.8v40.3
			c0,4.1,1,7.3,2.9,9.5C747,445.8,749.7,446.9,753.1,446.9z"/>
		<path class="st1" d="M811.8,454.2l-2.1-9.7h-0.5c-3.4,4.3-6.8,7.2-10.2,8.7c-3.4,1.5-7.6,2.3-12.7,2.3c-6.8,0-12.1-1.7-15.9-5.2
			c-3.8-3.5-5.8-8.5-5.8-14.9c0-13.8,11-21.1,33.1-21.7l11.6-0.4v-4.2c0-5.4-1.2-9.3-3.5-11.9c-2.3-2.6-6-3.8-11.1-3.8
			c-5.7,0-12.2,1.7-19.4,5.2l-3.2-7.9c3.4-1.8,7.1-3.3,11.1-4.3c4-1,8-1.6,12.1-1.6c8.2,0,14.2,1.8,18.1,5.4
			c3.9,3.6,5.9,9.4,5.9,17.4v46.7H811.8z M788.4,446.9c6.4,0,11.5-1.8,15.2-5.3c3.7-3.5,5.5-8.5,5.5-14.9v-6.2l-10.4,0.4
			c-8.2,0.3-14.2,1.6-17.8,3.8c-3.6,2.3-5.5,5.8-5.5,10.6c0,3.7,1.1,6.6,3.4,8.6C781.2,445.9,784.4,446.9,788.4,446.9z"/>
		<path class="st1" d="M861.8,455.4c-9.9,0-17.6-3-23-9.1c-5.4-6.1-8.1-14.7-8.1-25.9c0-11.4,2.8-20.3,8.3-26.5
			c5.5-6.2,13.4-9.4,23.6-9.4c3.3,0,6.6,0.4,9.9,1.1c3.3,0.7,5.9,1.5,7.7,2.5l-3.2,8.8c-2.3-0.9-4.8-1.7-7.5-2.3
			c-2.7-0.6-5.1-0.9-7.2-0.9c-13.9,0-20.8,8.9-20.8,26.6c0,8.4,1.7,14.9,5.1,19.4c3.4,4.5,8.4,6.7,15.1,6.7c5.7,0,11.5-1.2,17.5-3.7
			v9.2C874.5,454.2,868.8,455.4,861.8,455.4z"/>
		<path class="st1" d="M899.2,419.2c1.8-2.5,4.5-5.9,8.2-10l22.1-23.4h12.3L914,414.9l29.7,39.3h-12.5L907,421.8l-7.8,6.7v25.6H889
			V357h10.2v51.5c0,2.3-0.2,5.8-0.5,10.6H899.2z"/>
		<path class="st1" d="M1024.1,407.7c0,15.1-4.1,26.6-12.3,34.6c-8.2,8-19.9,12-35.3,12h-25.3v-91.3h28c14.2,0,25.2,3.9,33.1,11.8
			C1020.1,382.6,1024.1,393.6,1024.1,407.7z M1012.8,408c0-11.9-3-20.9-9-26.9c-6-6-14.8-9.1-26.6-9.1h-15.4V445h12.9
			c12.6,0,22.2-3.1,28.5-9.3C1009.6,429.4,1012.8,420.2,1012.8,408z"/>
		<path class="st1" d="M1078.5,454.2l-2.1-9.7h-0.5c-3.4,4.3-6.8,7.2-10.2,8.7c-3.4,1.5-7.6,2.3-12.7,2.3c-6.8,0-12.1-1.7-15.9-5.2
			c-3.8-3.5-5.8-8.5-5.8-14.9c0-13.8,11-21.1,33.1-21.7l11.6-0.4v-4.2c0-5.4-1.2-9.3-3.5-11.9c-2.3-2.6-6-3.8-11.1-3.8
			c-5.7,0-12.2,1.7-19.3,5.2l-3.2-7.9c3.4-1.8,7.1-3.3,11.1-4.3c4-1,8-1.6,12.1-1.6c8.2,0,14.2,1.8,18.1,5.4
			c3.9,3.6,5.9,9.4,5.9,17.4v46.7H1078.5z M1055.1,446.9c6.5,0,11.5-1.8,15.2-5.3c3.7-3.5,5.5-8.5,5.5-14.9v-6.2l-10.4,0.4
			c-8.2,0.3-14.2,1.6-17.8,3.8c-3.6,2.3-5.5,5.8-5.5,10.6c0,3.7,1.1,6.6,3.4,8.6C1047.9,445.9,1051.1,446.9,1055.1,446.9z"/>
		<path class="st1" d="M1090.3,385.8h11.1l15,39c3.3,8.9,5.3,15.3,6.1,19.3h0.5c0.5-2.1,1.7-5.8,3.4-10.9
			c1.7-5.1,7.4-20.9,16.9-47.4h11.1l-29.4,77.9c-2.9,7.7-6.3,13.2-10.2,16.4c-3.9,3.2-8.7,4.8-14.3,4.8c-3.2,0-6.3-0.4-9.4-1.1v-8.3
			c2.3,0.5,4.8,0.7,7.7,0.7c7.1,0,12.2-4,15.2-12l3.8-9.7L1090.3,385.8z"/>
	</g>
	<path class="st2" d="M295.5,313.5h-150c-11,0-20,9-20,20v150c0,11,9,20,20,20h81.6v42.9l40.1-42.9h28.3c11,0,20-9,20-20v-150
		C315.5,322.5,306.6,313.5,295.5,313.5z M276.6,460.4l-20,12.2v-86.9l-26.2-16v101.8l-10,6.1l-10-6.1V369.8l-25.9,16v75.8v11.2
		l-20-12.2v-87l56-34l56,34l0.2,0.1L276.6,460.4z"/>
</g>
</svg>
